<?xml version="1.0" encoding="UTF-8"?>
<svg enable-background="new 0 0 361 120" version="1.1" viewBox="0 0 361 120" xml:space="preserve" xmlns="http://www.w3.org/2000/svg">
<style type="text/css">
	.st0{fill:#F7971D;}
	.st1{fill:#B4D234;}
	.st2{fill:#23C3F3;}
	.st3{fill:#FFFFFF;}
</style>
	<path class="st0" d="m346.4 61.1c-5.9 0-11.3-3.8-13.4-9.4l-0.4-1 0.8-0.7c3.2-2.8 6.3-7.8 5.4-13.3l-0.2-0.9 0.8-0.5c0.2-0.2 0.5-0.3 0.7-0.5 1.8-1.3 3.3-2.4 6.1-2.4h0.1c7.9 0 14.3 6.4 14.3 14.3 0.2 7.9-6.2 14.4-14.2 14.4 0.1 0 0 0 0 0zm-10.2-9.5c1.9 3.9 5.8 6.5 10.2 6.5h0.1c6.2 0 11.3-5.1 11.3-11.4 0-6.2-5.1-11.3-11.4-11.3-1.9 0-2.8 0.6-4.4 1.8 0.4 5.1-1.7 10.4-5.8 14.4z"/>
	<path class="st1" d="m338.5 36l-0.2-1.9c-0.6-7.4-6.5-15.3-15.3-15.6l-2-0.1v-2c0.2-9.4 7.9-16.6 18-16.6 9.9-0.1 18.1 8 18.1 18 0 10.1-7.2 17.9-16.9 18.1l-1.7 0.1zm-13.1-21.3c9.1 1.4 15.3 9.2 16.7 17.1 6.5-1 11.2-6.8 11.2-14 0-7.8-6.3-14-14.1-14-7.3 0.1-12.8 4.6-13.8 10.9z"/>
	<path class="st2" d="m320.8 59.4c-6 0-11.7-2.3-16-6.6s-6.7-10-6.7-16.1c-0.1-12.5 10-22.7 22.6-22.8h0.1c6 0 11.7 2.3 16 6.6s6.7 10 6.7 16.1c0.1 12.5-10.1 22.8-22.6 22.9 0-0.1-0.1-0.1-0.1-0.1zm0-40.5c-0.1 0-0.1 0 0 0-9.9 0-17.8 8.1-17.8 17.8 0 4.7 1.9 9.2 5.3 12.5 3.3 3.3 7.8 5.1 12.5 5.1h0.1c9.8 0 17.7-8.1 17.7-17.8 0-4.7-1.9-9.2-5.3-12.5s-7.8-5.1-12.5-5.1z"/>
		<path class="st3" d="m9.6 119.5l-0.3-66h-6.7l-0.1-11.4 20.5-0.1 0.1 26.5-0.4 5h0.4c0.6-1.6 2.2-3.4 4.9-5.2s6.1-2.7 10.3-2.7c7.4 0 13.4 2.4 17.7 7.4 4.3 4.9 6.5 11.4 6.6 19.5 0 8.5-2.2 15.2-6.7 20.1s-10.3 7.4-17.5 7.4c-4.4 0-8-0.8-10.8-2.6s-4.5-3.5-5.2-5.2h-0.2v7.1l-12.6 0.2zm26-11.3c3.9 0 7-1.4 9.4-4.3 2.4-2.8 3.5-6.6 3.5-11.2 0-4.5-1.2-8.2-3.6-10.9s-5.4-4.1-9.2-4.1c-3.6 0-6.5 1.3-8.8 3.9-2.4 2.6-3.5 6.3-3.5 11.1 0 4.9 1.2 8.6 3.5 11.3s5.3 4 9 3.9l-0.3 0.3z"/>
		<path class="st3" d="m70.9 119l-0.1-11.4h6.7l-0.1-30.2h-6.7l-0.1-11.4 21-0.1 0.2 41.6h6.1l0.1 11.4-27.1 0.1zm19.6-63c-1.7 1.7-3.9 2.6-6.4 2.6s-4.6-0.8-6.5-2.6c-1.8-1.7-2.7-3.9-2.7-6.4s0.8-4.6 2.7-6.5c1.8-1.8 4-2.7 6.5-2.7s4.6 0.8 6.4 2.7c1.7 1.8 2.6 4 2.6 6.5s-0.9 4.7-2.6 6.4z"/>
		<path class="st3" d="m104.5 118.9l-0.1-11.4h6.8l-0.2-54.7h-6.8l-0.1-11.5 21.1-0.1 0.3 66.1h6.1l0.1 11.4-27.2 0.2z"/>
		<path class="st3" d="m179.9 112l-0.2 0.3-0.5 0.5-0.9 0.9c-0.3 0.3-0.6 0.6-1.1 1-0.4 0.3-0.9 0.7-1.4 1s-1.1 0.7-1.7 1-1.3 0.7-2 1c-0.8 0.3-1.5 0.5-2.3 0.8-0.8 0.2-1.6 0.4-2.6 0.6-1 0.1-1.9 0.2-2.9 0.2-6.5 0-11.4-1.7-14.9-5.1s-5.2-8.5-5.3-15.2l-0.1-22h-6.9l-0.1-11.4h6.9l-0.1-13.8 14.3-0.1 0.1 13.8 15.2-0.1 0.1 11.4-15.2 0.1 0.1 21.8c0 5.4 2.4 8.1 7.3 8.1 0.8 0 1.4-0.1 2-0.2s1.2-0.3 1.7-0.5 1-0.4 1.4-0.7c0.4-0.2 0.8-0.5 1.1-0.9l0.8-0.8 0.5-0.5 0.2-0.3 6.5 9.1z"/>
		<path class="st3" d="m197.9 94.7c0.5 4.2 2.1 7.4 4.8 9.6 2.7 2.1 5.9 3.2 9.7 3.2 2.3 0 4.4-0.3 6.5-1.1 2-0.8 3.8-1.6 5.1-2.7s2.4-2 3.1-2.7c0.8-0.8 1.2-1.4 1.4-1.8l7.6 7.8c-0.2 0.3-0.6 0.9-1.2 1.6-0.5 0.8-1.5 1.8-2.9 3.1s-3 2.5-4.7 3.6-4 2.1-6.8 2.8c-2.8 0.8-5.8 1.2-8.9 1.2-7.9 0-14.5-2.4-19.9-7.3s-8.1-11.6-8.2-19.9c0-8.3 2.6-14.9 8-19.9s11.5-7.5 18.5-7.5c8.3 0 14.6 2.3 18.8 7s6.4 11.6 6.5 20.6v1.7l-37.4 0.7zm23.4-8.3c-0.1-2.8-1.1-5.2-2.9-7.1s-4.5-2.9-8.1-2.9c-3.2 0-5.9 0.9-8.1 2.5-2.1 1.6-3.5 4.1-4.1 7.5h23.2z"/>
		<path class="st3" d="m288.6 118l-17.9-23.6-7.5 6.5v5.8h6.1l0.1 11.4-27.2 0.1-0.1-11.4h6.8l-0.3-54.6h-6.8l-0.1-11.4 21-0.1 0.2 48.1 14-12.4h-5.1l0.2-11.4 27.3-0.1 0.1 11.4h-7.1l-12 10.2 15.1 20h7.8l0.1 11.4-14.7 0.1z"/>
</svg>
